<?xml version="1.0" encoding="UTF-8" standalone="no"?>
<!DOCTYPE svg PUBLIC "-//W3C//DTD SVG 1.1//EN" "http://www.w3.org/Graphics/SVG/1.1/DTD/svg11.dtd">
<!-- 由 Microsoft Visio, SVG Export 生成 logoMTDPS-draw-new-dark.svg Page-1 -->
<svg xmlns="http://www.w3.org/2000/svg" xmlns:xlink="http://www.w3.org/1999/xlink" xmlns:ev="http://www.w3.org/2001/xml-events"
		xmlns:v="http://schemas.microsoft.com/visio/2003/SVGExtensions/" width="8.59055in" height="1.92913in"
		viewBox="0 0 618.52 138.898" xml:space="preserve" color-interpolation-filters="sRGB" class="st6">
	<v:documentProperties v:langID="2052" v:metric="true" v:viewMarkup="false">
		<v:userDefs>
			<v:ud v:nameU="msvNoAutoConnect" v:val="VT0(1):26"/>
		</v:userDefs>
	</v:documentProperties>

	<style type="text/css">
	<![CDATA[
		.st1 {fill:none;stroke:none;stroke-linecap:round;stroke-linejoin:round;stroke-width:0.75}
		.st2 {fill:#00b0f0;font-family:微软雅黑 Light;font-size:4.00001em;font-weight:bold}
		.st3 {fill:#00b0f0;stroke:none;stroke-linecap:butt;stroke-width:0.146484}
		.st4 {stroke:#00b0f0;stroke-linecap:round;stroke-linejoin:round;stroke-width:3}
		.st5 {fill:#00b0f0;font-family:Cambria;font-size:2.50001em;font-weight:bold}
		.st6 {fill:none;fill-rule:evenodd;font-size:12px;overflow:visible;stroke-linecap:square;stroke-miterlimit:3}
	]]>
	</style>

	<g v:mID="0" v:index="1" v:groupContext="foregroundPage">
		<title>页-1</title>
		<v:pageProperties v:drawingScale="0.0393701" v:pageScale="0.0393701" v:drawingUnits="24" v:shadowOffsetX="9"
				v:shadowOffsetY="-9"/>
		<g id="shape8-1" v:mID="8" v:groupContext="shape" transform="translate(126.709,-25.8672)">
			<title>工作表.8</title>
			<desc>恶意流量检测防御系统</desc>
			<v:textBlock v:margins="rect(4,4,4,4)" v:tabSpace="42.5197"/>
			<v:textRect cx="245.906" cy="108.072" width="491.82" height="61.6514"/>
			<rect x="0" y="77.2463" width="491.811" height="61.6514" class="st1"/>
			<text x="5.79" y="122.47" class="st2" v:langID="2052"><v:paragraph v:horizAlign="1"/><v:tabList/>恶意流量检测防御系统</text>		</g>
		<g id="group1-4" transform="translate(4.81889,-37.8664)" v:mID="1" v:groupContext="group">
			<title>工作表.1</title>
			<g id="shape2-5" v:mID="2" v:groupContext="shape">
				<title>工作表.2</title>
				<path d="M68.55 125.96 A6.14893 6.14893 -180 0 0 64.38 125.4 C64.38 125.29 64.36 125.18 64.32 125.06 L57.45 102.18
							 C57.21 101.35 56.32 100.87 55.51 101.13 C54.69 101.37 54.22 102.27 54.47 103.1 L61.35 125.99 C61.43
							 126.25 61.57 126.48 61.76 126.66 C61.1 127.21 60.53 127.89 60.12 128.71 C58.53 131.84 59.75 135.68 62.83
							 137.29 C65.91 138.9 69.69 137.66 71.27 134.53 C72.85 131.41 71.64 127.57 68.55 125.96 ZM113.15 107.41
							 C113.03 103.67 111.49 100.18 108.78 97.62 C106.09 95.06 102.6 93.71 98.88 93.83 C95.2 93.95 91.77 95.52
							 89.25 98.27 A14.0297 14.0297 -180 0 0 86.13 103.76 L55.84 95.32 L72.94 76.35 C74.02 76.83 75.22 77.1
							 76.47 77.1 C81.33 77.1 85.29 73.09 85.29 68.15 C85.29 63.21 81.33 59.19 76.47 59.19 C71.61 59.19 67.66
							 63.21 67.66 68.15 C67.66 70.66 68.69 72.93 70.33 74.56 L53.12 93.65 L37.37 66.28 A13.6673 13.6673 -180
							 0 0 43.69 53.9 C43.24 46.41 36.9 40.7 29.52 41.13 C25.94 41.34 22.66 42.96 20.29 45.68 C17.91 48.4 16.72
							 51.89 16.94 55.52 C17.37 62.74 23.27 68.32 30.3 68.32 C30.56 68.32 30.84 68.32 31.13 68.3 C32.31 68.23
							 33.45 68 34.52 67.64 L50.25 94.98 C50.18 95.1 50.12 95.22 50.08 95.36 C50.05 95.49 50.03 95.63 50.03
							 95.77 L24.16 112.73 C21.54 109.78 17.7 107.98 13.47 108.11 C9.79 108.23 6.36 109.8 3.84 112.55 C1.32
							 115.29 0 118.87 0.11 122.61 C0.23 126.35 1.78 129.83 4.48 132.4 C7.07 134.85 10.4 136.19 13.92 136.19
							 L14.37 136.19 C21.99 135.95 27.98 129.44 27.74 121.7 A14.1034 14.1034 -180 0 0 25.99 115.31 L52.54 97.91
							 C52.64 97.93 52.74 97.94 52.85 97.94 C52.98 97.94 53.12 97.92 53.26 97.89 L85.56 106.89 C85.52 107.37
							 85.51 107.85 85.53 108.33 C85.64 112.08 87.19 115.56 89.89 118.12 C92.47 120.58 95.81 121.92 99.33 121.92
							 C99.48 121.92 99.63 121.91 99.78 121.91 C107.4 121.66 113.39 115.16 113.15 107.41 ZM76.47 63.95 C78.74
							 63.95 80.6 65.83 80.6 68.15 C80.6 70.47 78.74 72.35 76.47 72.35 C74.19 72.35 72.34 70.47 72.34 68.15
							 C72.34 65.83 74.19 63.95 76.47 63.95 ZM34.48 58.49 C33.48 59.62 32.11 60.3 30.62 60.39 C27.57 60.59
							 24.91 58.18 24.71 55.06 C24.63 53.54 25.12 52.08 26.11 50.95 C27.11 49.82 28.48 49.15 29.96 49.06 C30.08
							 49.04 30.19 49.04 30.31 49.04 C31.68 49.04 32.97 49.54 34.01 50.48 C35.12 51.49 35.78 52.88 35.88 54.39
							 C35.96 55.9 35.47 57.36 34.48 58.49 ZM14.14 128.26 C12.53 128.31 11 127.73 9.82 126.61 C8.64 125.49
							 7.96 123.99 7.92 122.35 C7.87 120.71 8.44 119.17 9.54 117.97 C10.64 116.77 12.13 116.08 13.74 116.03
							 L13.94 116.03 C15.46 116.03 16.92 116.61 18.05 117.68 C19.23 118.8 19.91 120.3 19.96 121.94 C20.06 125.33
							 17.45 128.14 14.14 128.26 ZM99.53 113.98 C97.93 114.03 96.4 113.44 95.22 112.32 C94.04 111.21 93.37
							 109.7 93.32 108.06 A6.15528 6.15528 0 0 1 94.94 103.68 C96.04 102.48 97.52 101.8 99.14 101.74 L99.34
							 101.74 C100.88 101.74 102.32 102.33 103.45 103.39 C104.63 104.51 105.31 106.02 105.36 107.66 C105.46
							 111.04 102.84 113.86 99.53 113.98 Z" class="st3"/>
			</g>
			<g id="shape3-7" v:mID="3" v:groupContext="shape" transform="translate(38.9298,-29.2143)">
				<title>工作表.3</title>
				<path d="M0 124.65 C0 132.52 6.28 138.9 14.03 138.9 C21.77 138.9 28.04 132.52 28.04 124.65 C28.04 116.78 21.77 110.4
							 14.03 110.4 C6.28 110.4 0 116.78 0 124.65 Z" class="st3"/>
			</g>
		</g>
		<g id="group11-9" transform="translate(4.81889,2.67364)" v:mID="11" v:groupContext="group">
			<title>工作表.11</title>
			<g id="shape7-10" v:mID="7" v:groupContext="shape" transform="translate(5.66929,-6.66321)">
				<title>工作表.7</title>
				<path d="M0 138.9 L97.8 138.9" class="st4"/>
			</g>
			<g id="shape9-13" v:mID="9" v:groupContext="shape" transform="translate(5.66929,-37.4785)">
				<title>工作表.9</title>
				<path d="M0 138.9 L97.8 138.9" class="st4"/>
			</g>
			<g id="group10-16" v:mID="10" v:groupContext="group">
				<title>工作表.10</title>
				<g id="shape4-17" v:mID="4" v:groupContext="shape" transform="translate(-2.38704,0)">
					<title>工作表.4</title>
					<desc>MTDPS</desc>
					<v:textBlock v:margins="rect(4,4,4,4)" v:tabSpace="42.5197"/>
					<v:textRect cx="56.6929" cy="118.427" width="113.39" height="40.9413"/>
					<rect x="0" y="97.9563" width="113.386" height="40.9413" class="st1"/>
					<text x="6.94" y="127.43" class="st5" v:langID="2052"><v:paragraph v:horizAlign="1"/><v:tabList/>MTDPS</text>				</g>
			</g>
		</g>
	</g>
</svg>
