<?xml version="1.0" encoding="UTF-8" standalone="no"?>
<!DOCTYPE svg PUBLIC "-//W3C//DTD SVG 1.1//EN" "http://www.w3.org/Graphics/SVG/1.1/DTD/svg11.dtd">
<!-- 由 Microsoft Visio, SVG Export 生成 logoMTDPS-draw-new.svg Page-1 -->
<svg xmlns="http://www.w3.org/2000/svg" xmlns:xlink="http://www.w3.org/1999/xlink" xmlns:ev="http://www.w3.org/2001/xml-events"
		xmlns:v="http://schemas.microsoft.com/visio/2003/SVGExtensions/" width="8.89764in" height="2.3622in"
		viewBox="0 0 640.63 170.079" xml:space="preserve" color-interpolation-filters="sRGB" class="st6">
	<v:documentProperties v:langID="2052" v:metric="true" v:viewMarkup="false">
		<v:userDefs>
			<v:ud v:nameU="msvNoAutoConnect" v:val="VT0(1):26"/>
		</v:userDefs>
	</v:documentProperties>

	<style type="text/css">
	<![CDATA[
		.st1 {fill:none;stroke:none;stroke-linecap:round;stroke-linejoin:round;stroke-width:0.75}
		.st2 {fill:#002060;font-family:微软雅黑 Light;font-size:4.00001em;font-weight:bold}
		.st3 {fill:#112079;stroke:none;stroke-linecap:butt;stroke-width:0.146484}
		.st4 {stroke:#002677;stroke-linecap:round;stroke-linejoin:round;stroke-width:3}
		.st5 {fill:#002677;font-family:Cambria;font-size:2.50001em;font-weight:bold}
		.st6 {fill:none;fill-rule:evenodd;font-size:12px;overflow:visible;stroke-linecap:square;stroke-miterlimit:3}
	]]>
	</style>

	<g v:mID="0" v:index="1" v:groupContext="foregroundPage">
		<title>页-1</title>
		<v:pageProperties v:drawingScale="0.0393701" v:pageScale="0.0393701" v:drawingUnits="24" v:shadowOffsetX="9"
				v:shadowOffsetY="-9"/>
		<g id="shape8-1" v:mID="8" v:groupContext="shape" transform="translate(140.315,-42.8751)">
			<title>工作表.8</title>
			<desc>恶意流量检测防御系统</desc>
			<v:textBlock v:margins="rect(4,4,4,4)" v:tabSpace="42.5197"/>
			<v:textRect cx="245.906" cy="139.253" width="491.82" height="61.6514"/>
			<rect x="0" y="108.427" width="491.811" height="61.6514" class="st1"/>
			<text x="5.79" y="153.65" class="st2" v:langID="2052"><v:paragraph v:horizAlign="1"/><v:tabList/>恶意流量检测防御系统</text>		</g>
		<g id="group12-4" transform="translate(18.4252,-14.3342)" v:mID="12" v:groupContext="group">
			<title>工作表.12</title>
			<g id="group1-5" transform="translate(4.55636E-13,-40.54)" v:mID="1" v:groupContext="group">
				<title>工作表.1</title>
				<g id="shape2-6" v:mID="2" v:groupContext="shape">
					<title>工作表.2</title>
					<path d="M68.55 157.14 A6.14893 6.14893 -180 0 0 64.38 156.58 C64.38 156.47 64.36 156.36 64.32 156.24 L57.45
								 133.36 C57.21 132.53 56.32 132.05 55.51 132.31 C54.69 132.55 54.22 133.45 54.47 134.29 L61.35 157.17
								 C61.43 157.43 61.57 157.66 61.76 157.84 C61.1 158.39 60.53 159.07 60.12 159.89 C58.53 163.02 59.75
								 166.86 62.83 168.47 C65.91 170.08 69.69 168.84 71.27 165.71 C72.85 162.59 71.64 158.75 68.55 157.14
								 ZM113.15 138.59 C113.03 134.85 111.49 131.36 108.78 128.8 C106.09 126.24 102.6 124.89 98.88 125.01
								 C95.2 125.13 91.77 126.7 89.25 129.45 A14.0297 14.0297 -180 0 0 86.13 134.94 L55.84 126.5 L72.94
								 107.53 C74.02 108.01 75.22 108.28 76.47 108.28 C81.33 108.28 85.29 104.27 85.29 99.33 C85.29 94.39
								 81.33 90.37 76.47 90.37 C71.61 90.37 67.66 94.39 67.66 99.33 C67.66 101.84 68.69 104.11 70.33 105.74
								 L53.12 124.83 L37.37 97.46 A13.6673 13.6673 -180 0 0 43.69 85.08 C43.24 77.59 36.9 71.88 29.52 72.31
								 C25.94 72.52 22.66 74.14 20.29 76.86 C17.91 79.58 16.72 83.08 16.94 86.7 C17.37 93.92 23.27 99.5
								 30.3 99.5 C30.56 99.5 30.84 99.5 31.13 99.48 C32.31 99.41 33.45 99.18 34.52 98.82 L50.25 126.16
								 C50.18 126.28 50.12 126.4 50.08 126.54 C50.05 126.67 50.03 126.81 50.03 126.95 L24.16 143.91 C21.54
								 140.97 17.7 139.16 13.47 139.29 C9.79 139.41 6.36 140.98 3.84 143.73 C1.32 146.47 0 150.05 0.11
								 153.79 C0.23 157.53 1.78 161.02 4.48 163.58 C7.07 166.03 10.4 167.37 13.92 167.37 L14.37 167.37
								 C21.99 167.13 27.98 160.63 27.74 152.88 A14.1034 14.1034 -180 0 0 25.99 146.49 L52.54 129.09 C52.64
								 129.11 52.74 129.13 52.85 129.13 C52.98 129.13 53.12 129.1 53.26 129.07 L85.56 138.07 C85.52 138.55
								 85.51 139.03 85.53 139.51 C85.64 143.26 87.19 146.74 89.89 149.31 C92.47 151.76 95.81 153.1 99.33
								 153.1 C99.48 153.1 99.63 153.09 99.78 153.09 C107.4 152.84 113.39 146.34 113.15 138.59 ZM76.47 95.13
								 C78.74 95.13 80.6 97.02 80.6 99.33 C80.6 101.65 78.74 103.53 76.47 103.53 C74.19 103.53 72.34 101.65
								 72.34 99.33 C72.34 97.02 74.19 95.13 76.47 95.13 ZM34.48 89.67 C33.48 90.8 32.11 91.48 30.62 91.57
								 C27.57 91.77 24.91 89.36 24.71 86.24 C24.63 84.72 25.12 83.27 26.11 82.14 C27.11 81 28.48 80.33
								 29.96 80.24 C30.08 80.23 30.19 80.23 30.31 80.23 C31.68 80.23 32.97 80.72 34.01 81.66 C35.12 82.67
								 35.78 84.06 35.88 85.57 C35.96 87.08 35.47 88.54 34.48 89.67 ZM14.14 159.44 C12.53 159.5 11 158.91
								 9.82 157.79 C8.64 156.68 7.96 155.17 7.92 153.53 C7.87 151.89 8.44 150.35 9.54 149.15 C10.64 147.95
								 12.13 147.27 13.74 147.21 L13.94 147.21 C15.46 147.21 16.92 147.79 18.05 148.86 C19.23 149.98 19.91
								 151.49 19.96 153.12 C20.06 156.51 17.45 159.33 14.14 159.44 ZM99.53 145.16 C97.93 145.21 96.4 144.62
								 95.22 143.51 C94.04 142.39 93.37 140.88 93.32 139.24 A6.15528 6.15528 0 0 1 94.94 134.86 C96.04
								 133.66 97.52 132.98 99.14 132.92 L99.34 132.92 C100.88 132.92 102.32 133.51 103.45 134.57 C104.63
								 135.69 105.31 137.2 105.36 138.84 C105.46 142.22 102.84 145.04 99.53 145.16 Z" class="st3"/>
				</g>
				<g id="shape3-8" v:mID="3" v:groupContext="shape" transform="translate(38.9298,-29.2143)">
					<title>工作表.3</title>
					<path d="M0 155.83 C0 163.7 6.28 170.08 14.03 170.08 C21.77 170.08 28.04 163.7 28.04 155.83 C28.04 147.96 21.77
								 141.58 14.03 141.58 C6.28 141.58 0 147.96 0 155.83 Z" class="st3"/>
				</g>
			</g>
			<g id="group11-10" v:mID="11" v:groupContext="group">
				<title>工作表.11</title>
				<g id="shape7-11" v:mID="7" v:groupContext="shape" transform="translate(5.66929,-6.66321)">
					<title>工作表.7</title>
					<path d="M0 170.08 L97.8 170.08" class="st4"/>
				</g>
				<g id="shape9-14" v:mID="9" v:groupContext="shape" transform="translate(5.66929,-37.4785)">
					<title>工作表.9</title>
					<path d="M0 170.08 L97.8 170.08" class="st4"/>
				</g>
				<g id="group10-17" v:mID="10" v:groupContext="group">
					<title>工作表.10</title>
					<g id="shape4-18" v:mID="4" v:groupContext="shape" transform="translate(-2.38704,0)">
						<title>工作表.4</title>
						<desc>MTDPS</desc>
						<v:textBlock v:margins="rect(4,4,4,4)" v:tabSpace="42.5197"/>
						<v:textRect cx="56.6929" cy="149.608" width="113.39" height="40.9413"/>
						<rect x="0" y="129.137" width="113.386" height="40.9413" class="st1"/>
						<text x="6.94" y="158.61" class="st5" v:langID="2052"><v:paragraph v:horizAlign="1"/><v:tabList/>MTDPS</text>					</g>
				</g>
			</g>
		</g>
	</g>
</svg>
